<svg xmlns="http://www.w3.org/2000/svg" xmlns:xlink="http://www.w3.org/1999/xlink" xmlns:fi="http://pattern.flaticon.com/" x="0" y="0" width="1500" height="1000" viewBox="0 0 1500 1000"><rect x="0px" y="0px" width="100%" height="100%" opacity="1" fill="#fafff7"/><defs><g transform="matrix(0.7984914183616638 0 0 0.7984914183616638 -36.413978576660156 112.58602142333984)" id="L1_4"><rect x="0px" y="0px" width="511px" height="511px" fill="#fcc2b6"/><path d="M512.001,104.425V84.188h-73.077c-5.668,0-10.263-4.595-10.263-10.263V0h-20.237v73.925  c0,5.668-4.595,10.263-10.263,10.263H222.908c-5.668,0-10.263-4.595-10.263-10.263V0h-20.237v73.925  c0,5.668-4.595,10.263-10.263,10.263H0.001v20.237h73.077c5.668,0,10.263,4.595,10.263,10.263v67.035  c0,5.668-4.595,10.263-10.263,10.263H0.001v20.237h182.145c5.668,0,10.263,4.595,10.263,10.263v67.035  c0,5.668-4.595,10.263-10.263,10.263H0.001v20.237h73.077c5.668,0,10.263,4.595,10.263,10.263v67.035  c0,5.668-4.595,10.263-10.263,10.263H0.001v20.237h182.145c5.668,0,10.263,4.595,10.263,10.263v73.924h20.237v-73.924  c0-5.668,4.595-10.263,10.263-10.263h175.254c5.668,0,10.263,4.595,10.263,10.263v73.924h20.237v-73.924  c0-5.668,4.595-10.263,10.263-10.263h73.077v-20.24H329.856c-5.668,0-10.263-4.595-10.263-10.263v-67.035  c0-5.668,4.595-10.263,10.263-10.263h182.145v-20.237h-73.077c-5.668,0-10.263-4.595-10.263-10.263v-67.034  c0-5.668,4.595-10.263,10.263-10.263h73.077v-20.237H329.856c-5.668,0-10.263-4.595-10.263-10.263v-67.033  c0-5.668,4.595-10.263,10.263-10.263h182.145V104.425z M289.094,407.577H113.839c-5.668,0-10.263-4.595-10.263-10.263v-67.035  c0-5.668,4.595-10.263,10.263-10.263h175.256c5.668,0,10.263,4.595,10.263,10.263v67.035  C299.356,402.982,294.762,407.577,289.094,407.577z M398.162,299.779H222.908c-5.668,0-10.263-4.595-10.263-10.263v-67.035  c0-5.668,4.595-10.263,10.263-10.263h175.254c5.668,0,10.263,4.595,10.263,10.263v67.035  C408.425,295.185,403.83,299.779,398.162,299.779z M289.094,191.984H113.839c-5.668,0-10.263-4.595-10.263-10.263v-67.034  c0-5.668,4.595-10.263,10.263-10.263h175.256c5.668,0,10.263,4.595,10.263,10.263v67.035  C299.356,187.389,294.762,191.984,289.094,191.984z" fill="#f0e8ff"/></g></defs><g fi:class="KUsePattern"><pattern id="pattern_L1_4" width="350" height="350" patternUnits="userSpaceOnUse"><use xlink:href="#L1_4" x="-350" y="-350"/><use xlink:href="#L1_4" x="0" y="-350"/><use xlink:href="#L1_4" x="350" y="-350"/><use xlink:href="#L1_4" x="-350" y="0"/><use xlink:href="#L1_4" x="0" y="0"/><use xlink:href="#L1_4" x="350" y="0"/><use xlink:href="#L1_4" x="-350" y="350"/><use xlink:href="#L1_4" x="0" y="350"/><use xlink:href="#L1_4" x="350" y="350"/></pattern><rect x="0" y="0" width="100%" height="100%" fill="url(#pattern_L1_4)"/></g></svg>